<svg viewBox="0 0 680 200" width="100%" role="img" xmlns="http://www.w3.org/2000/svg">
  <title>EVIDENTiS - Evidence-Based Intelligent Decision System</title>
  <desc>
    Refined EVIDENTiS logo: a bold geometric E containing a classical pillar and scales of justice, beside the wordmark and tagline.
  </desc>

  <defs>
    <linearGradient id="pg" x1="0" y1="0" x2="0" y2="1">
      <stop offset="0%" stop-color="#B09BF8" />
      <stop offset="48%" stop-color="#6A76EC" />
      <stop offset="100%" stop-color="#3150C6" />
    </linearGradient>
  </defs>

  <path d="M24,14 H171 L178,21 V44 L171,50 H56 V83 H149 L154,88 V101 L149,106 H56 V138 H171 L178,145 V167 L171,173 H24 Z" fill="#0B1D40" />

  <rect x="82" y="52" width="36" height="5" fill="url(#pg)" />
  <rect x="87" y="57" width="26" height="5" fill="url(#pg)" />
  <rect x="92" y="62" width="16" height="4" fill="url(#pg)" />
  <rect x="93" y="66" width="14" height="62" fill="url(#pg)" />
  <line x1="97" y1="67" x2="97" y2="127" stroke="rgba(255,255,255,0.13)" stroke-width="1" />
  <line x1="100" y1="67" x2="100" y2="127" stroke="rgba(255,255,255,0.13)" stroke-width="1" />
  <line x1="103" y1="67" x2="103" y2="127" stroke="rgba(255,255,255,0.13)" stroke-width="1" />
  <rect x="92" y="128" width="16" height="4" fill="url(#pg)" />
  <rect x="87" y="132" width="26" height="5" fill="url(#pg)" />
  <rect x="82" y="137" width="36" height="5" fill="url(#pg)" />

  <polygon points="100,52 94.5,58 105.5,58" fill="#7075EE" />
  <line x1="67" y1="58" x2="132" y2="58" stroke="#5568E8" stroke-width="2.5" stroke-linecap="round" />
  <circle cx="67" cy="58" r="2.8" fill="#8080F2" />
  <circle cx="132" cy="58" r="2.8" fill="#8080F2" />
  <line x1="67" y1="60.5" x2="67" y2="70" stroke="#5568E8" stroke-width="1.5" />
  <line x1="132" y1="60.5" x2="132" y2="70" stroke="#5568E8" stroke-width="1.5" />
  <circle cx="67" cy="70" r="2" fill="#8080F2" />
  <circle cx="132" cy="70" r="2" fill="#8080F2" />
  <path d="M59,70 Q67,78 75,70" fill="none" stroke="#5568E8" stroke-width="2.2" stroke-linecap="round" />
  <path d="M124,70 Q132,78 140,70" fill="none" stroke="#5568E8" stroke-width="2.2" stroke-linecap="round" />

  <line x1="193" y1="24" x2="193" y2="164" stroke="#0B1D40" stroke-width="1.5" opacity="0.6" />

  <text y="114" font-family="'Arial Black','Helvetica Neue',Arial,sans-serif" font-size="54" font-weight="900" letter-spacing="2.5">
    <tspan x="207" fill="#0B1D40">EVIDENT</tspan>
    <tspan fill="#2248D0">i</tspan>
    <tspan fill="#0B1D40">S</tspan>
  </text>

  <line x1="207" y1="133" x2="222" y2="133" stroke="#2E54C2" stroke-width="1.5" />
  <text x="228" y="137" font-family="'Helvetica Neue',Arial,sans-serif" font-size="10" fill="#2E54C2" letter-spacing="2.3" font-weight="700">
    EVIDENCE-BASED INTELLIGENT DECISION ENGINE
  </text>
  <line x1="566" y1="133" x2="581" y2="133" stroke="#2E54C2" stroke-width="1.5" />
  <line x1="260" y1="151" x2="275" y2="151" stroke="#2E54C2" stroke-width="1.5" />
  <text x="281" y="155" font-family="'Helvetica Neue',Arial,sans-serif" font-size="10" fill="#2E54C2" letter-spacing="2.3" font-weight="700">
    &amp; TRUSTED INTELLIGENCE SYSTEM
  </text>
  <line x1="525" y1="151" x2="540" y2="151" stroke="#2E54C2" stroke-width="1.5" />
</svg>
